<svg width="24" height="24" viewBox="0 0 24 24" fill="none" xmlns="http://www.w3.org/2000/svg">
<path d="M17.913 5.02951L12 10.9425L6.08702 5.02951C5.9448 4.89937 5.75785 4.82912 5.56513 4.83339C5.3724 4.83766 5.18875 4.91612 5.05244 5.05243C4.91613 5.18875 4.83766 5.37239 4.83339 5.56512C4.82912 5.75785 4.89937 5.94479 5.02952 6.08701L10.9395 12L5.02802 17.9115C4.95579 17.9803 4.89806 18.0629 4.85821 18.1544C4.81836 18.2458 4.79719 18.3443 4.79596 18.4441C4.79472 18.5438 4.81344 18.6428 4.85101 18.7353C4.88859 18.8277 4.94426 18.9117 5.01475 18.9823C5.08525 19.0528 5.16914 19.1086 5.26151 19.1463C5.35388 19.184 5.45285 19.2029 5.55261 19.2018C5.65237 19.2007 5.7509 19.1797 5.84242 19.14C5.93393 19.1003 6.01659 19.0426 6.08552 18.9705L12 13.059L17.913 18.972C18.0552 19.1022 18.2422 19.1724 18.4349 19.1681C18.6276 19.1639 18.8113 19.0854 18.9476 18.9491C19.0839 18.8128 19.1624 18.6291 19.1666 18.4364C19.1709 18.2437 19.1007 18.0567 18.9705 17.9145L13.0575 12.0015L18.9705 6.08701C19.0427 6.01818 19.1005 5.93561 19.1403 5.84415C19.1802 5.75269 19.2013 5.65419 19.2026 5.55443C19.2038 5.45467 19.1851 5.35567 19.1475 5.26326C19.1099 5.17084 19.0543 5.08686 18.9838 5.01627C18.9133 4.94567 18.8294 4.88988 18.737 4.85218C18.6447 4.81447 18.5457 4.79561 18.4459 4.79671C18.3462 4.7978 18.2476 4.81883 18.1561 4.85855C18.0646 4.89827 17.9819 4.95589 17.913 5.02801V5.02951Z" fill="black"/>
</svg>
