<svg width="24" height="24" viewBox="0 0 24 24"
  xmlns="http://www.w3.org/2000/svg">
  <path d="M21.25 12C21.25 14.4533 20.2754 16.806 18.5407 18.5407C16.806 20.2754 14.4533 21.25 12 21.25V22.75C17.937 22.75 22.75 17.937 22.75 12H21.25ZM12 21.25C9.54675 21.25 7.19397 20.2754 5.45926 18.5407C3.72455 16.806 2.75 14.4533 2.75 12H1.25C1.25 17.937 6.063 22.75 12 22.75V21.25ZM2.75 12C2.75 9.54675 3.72455 7.19397 5.45926 5.45926C7.19397 3.72455 9.54675 2.75 12 2.75V1.25C6.063 1.25 1.25 6.063 1.25 12H2.75ZM15.5 14.25C13.975 14.25 12.5125 13.6442 11.4341 12.5659C10.3558 11.4875 9.75 10.025 9.75 8.5H8.25C8.25 10.4228 9.01384 12.2669 10.3735 13.6265C11.7331 14.9862 13.5772 15.75 15.5 15.75V14.25ZM20.425 11.469C19.9136 12.3179 19.1913 13.0201 18.3284 13.5074C17.4654 13.9947 16.4911 14.2505 15.5 14.25V15.75C16.7494 15.7507 17.9778 15.4283 19.0659 14.8141C20.154 14.2 21.0648 13.315 21.71 12.245L20.425 11.469ZM9.75 8.5C9.74957 7.50897 10.0054 6.53467 10.4927 5.67171C10.98 4.80875 11.6822 4.08647 12.531 3.575L11.755 2.291C10.6851 2.93599 9.80011 3.84665 9.18597 4.93457C8.57184 6.02249 8.24941 7.25071 8.25 8.5H9.75ZM12 2.75C11.8986 2.74761 11.8022 2.70519 11.732 2.632C11.6891 2.59024 11.6604 2.536 11.65 2.477C11.646 2.446 11.648 2.356 11.755 2.291L12.531 3.575C13.034 3.271 13.196 2.714 13.137 2.276C13.075 1.821 12.717 1.25 12 1.25V2.75ZM21.71 12.245C21.644 12.352 21.554 12.354 21.523 12.35C21.464 12.3396 21.4098 12.3109 21.368 12.268C21.2948 12.1978 21.2524 12.1014 21.25 12H22.75C22.75 11.283 22.179 10.925 21.724 10.863C21.286 10.804 20.729 10.966 20.425 11.469L21.71 12.245Z" />
</svg>
