<svg width="24" height="24" viewBox="0 0 24 24" fill="none"
  xmlns="http://www.w3.org/2000/svg">
  <path d="M16 9C16 9.26522 15.8946 9.51957 15.7071 9.70711C15.5196 9.89464 15.2652 10 15 10C14.7348 10 14.4804 9.89464 14.2929 9.70711C14.1054 9.51957 14 9.26522 14 9C14 8.73478 14.1054 8.48043 14.2929 8.29289C14.4804 8.10536 14.7348 8 15 8C15.2652 8 15.5196 8.10536 15.7071 8.29289C15.8946 8.48043 16 8.73478 16 9ZM10 9C10 9.26522 9.89464 9.51957 9.70711 9.70711C9.51957 9.89464 9.26522 10 9 10C8.73478 10 8.48043 9.89464 8.29289 9.70711C8.10536 9.51957 8 9.26522 8 9C8 8.73478 8.10536 8.48043 8.29289 8.29289C8.48043 8.10536 8.73478 8 9 8C9.26522 8 9.51957 8.10536 9.70711 8.29289C9.89464 8.48043 10 8.73478 10 9Z" fill="#1B1B2B"/>
  <path fill-rule="evenodd" clip-rule="evenodd" d="M12 2.75C11.4033 2.75 10.831 2.98705 10.409 3.40901C9.98705 3.83097 9.74999 4.40326 9.74999 5V5.254C10.168 5.25 10.618 5.25 11.105 5.25H12.895C13.382 5.25 13.833 5.25 14.25 5.254V5C14.25 4.40326 14.0129 3.83097 13.591 3.40901C13.169 2.98705 12.5967 2.75 12 2.75ZM15.75 5.307V5C15.75 4.00544 15.3549 3.05161 14.6516 2.34835C13.9484 1.64509 12.9946 1.25 12 1.25C11.0054 1.25 10.0516 1.64509 9.34834 2.34835C8.64508 3.05161 8.24999 4.00544 8.24999 5V5.307C8.11499 5.317 7.98499 5.328 7.85899 5.342C6.98099 5.437 6.24599 5.635 5.59399 6.082C5.36961 6.23565 5.15883 6.40828 4.96399 6.598C4.39799 7.15 4.05899 7.832 3.79399 8.674C3.53699 9.493 3.32899 10.533 3.06699 11.84L3.04799 11.935C2.67199 13.818 2.37499 15.302 2.28999 16.484C2.20199 17.692 2.32399 18.707 2.89599 19.588C3.08699 19.882 3.30999 20.153 3.55999 20.398C4.31199 21.132 5.28399 21.45 6.48499 21.602C7.66099 21.75 9.17499 21.75 11.095 21.75H12.905C14.826 21.75 16.339 21.75 17.515 21.602C18.716 21.45 19.689 21.132 20.44 20.398C20.6905 20.1533 20.9132 19.8817 21.104 19.588C21.676 18.708 21.798 17.692 21.711 16.484C21.625 15.302 21.329 13.818 20.951 11.935L20.933 11.84C20.672 10.533 20.463 9.493 20.206 8.674C19.941 7.832 19.602 7.15 19.036 6.598C18.8412 6.40827 18.6304 6.23564 18.406 6.082C17.754 5.635 17.019 5.437 16.141 5.342C16.0112 5.3281 15.8812 5.31643 15.751 5.307H15.75ZM8.01999 6.833C7.27299 6.913 6.81199 7.066 6.44199 7.319C6.28845 7.42443 6.14425 7.54287 6.01099 7.673C5.68999 7.986 5.45099 8.408 5.22499 9.124C4.99499 9.857 4.80099 10.817 4.52999 12.176C4.13999 14.124 3.86299 15.516 3.78599 16.592C3.70899 17.654 3.83799 18.285 4.15399 18.771C4.28399 18.971 4.43699 19.158 4.60799 19.325C5.02299 19.73 5.61599 19.98 6.67299 20.114C7.74299 20.249 9.16299 20.25 11.149 20.25H12.852C14.838 20.25 16.256 20.249 17.327 20.114C18.384 19.98 18.977 19.73 19.392 19.325C19.5633 19.1576 19.7155 18.9718 19.846 18.771C20.162 18.285 20.291 17.654 20.215 16.591C20.137 15.515 19.86 14.124 19.471 12.176C19.199 10.817 19.006 9.856 18.775 9.124C18.55 8.408 18.31 7.986 17.989 7.673C17.8561 7.5429 17.7122 7.42446 17.559 7.319C17.189 7.066 16.727 6.914 15.98 6.833C15.217 6.751 14.237 6.75 12.851 6.75H11.15C9.76399 6.75 8.78399 6.751 8.01999 6.833Z" fill="#1B1B2B"/>
</svg>
